<?xml version="1.0" encoding="utf-8"?>
<!-- Generator: Adobe Illustrator 20.1.0, SVG Export Plug-In . SVG Version: 6.00 Build 0)  -->
<svg version="1.1" id="Layer_1" xmlns="http://www.w3.org/2000/svg" xmlns:xlink="http://www.w3.org/1999/xlink" x="0px" y="0px"
	 viewBox="0 0 66.2 63.6" style="enable-background:new 0 0 66.2 63.6;" xml:space="preserve">
<style type="text/css">
	.st0{fill:#8D633A;stroke:#603A17;stroke-width:2;stroke-miterlimit:10;}
	.st1{fill:#412312;}
</style>
<g>
	<path class="st0" d="M14.9,5.8c0,0,0.7-0.2,1.7-0.6c0.5-0.1,0.9-0.2,1.3-0.5c1.7-0.5,3.9-1.1,6.4-1.6c3.6-0.8,7.7-1.4,11.2-1.3
		c2.8,0,5.5,0.6,7,1.7c6.4,5,8.5,3.6,11.4,8.5c2.8,5,3.6,6.4,3.6,6.4s4.2,2.2,5.7,5s0.8,8.5-2.2,12.9c-2.8,4.2-8.5,12.9-7.9,15.7
		c0.7,2.8-2.8,5.7-5.7,5c-2.8-0.8-12.9,5.7-18.6,3.6C23.3,58.3,7.7,49.8,4.9,41.9S1.3,31.2,3.4,27c2.2-4.2,2.2-9.2,2.2-9.2
		S5.1,7.5,11.2,6c0.7-0.1,1.4-0.2,2.2-0.1l8.5-2.2"/>
	<g>
		<path class="st1" d="M11.6,11c0,0,8.8,6.7,2.7,6.1s-2.7-5.5-2.7-5.5"/>
		<path class="st1" d="M27.2,11l4,3.4c0,0,4-6.1,0-5.5C27.2,9.6,27.2,11,27.2,11z"/>
		<path class="st1" d="M54.7,13.9l-3.7-3.7c0,0-4.6,5.7-0.6,5.5C54.6,15.4,54.7,13.9,54.7,13.9z"/>
		<path class="st1" d="M30.3,34.9l-4-3.5c0,0-4.2,6-0.1,5.5C30.3,36.4,30.3,34.9,30.3,34.9z"/>
		<path class="st1" d="M53.7,29.4l4,3.4c0,0,4-6.1,0-5.5C53.7,27.9,53.7,29.4,53.7,29.4z"/>
		<path class="st1" d="M36.1,29.3l5.1-1.4c0,0-2.7-6.8-4.4-3.1C35,28.5,36.1,29.3,36.1,29.3z"/>
		<path class="st1" d="M42.8,42.3l4,3.4c0,0,4-6.1,0-5.5C42.8,40.9,42.8,42.3,42.8,42.3z"/>
		<path class="st1" d="M28.8,52.4l4.2-3.2c0,0-4.9-5.5-5.2-1.3C27.5,52.1,28.8,52.4,28.8,52.4z"/>
		<path class="st1" d="M50.5,57.4l3.3-4.1c0,0-6.2-3.9-5.5,0.1C49.3,57.5,50.5,57.4,50.5,57.4z"/>
		<path class="st1" d="M33.2,56.3l-0.9,5.2c0,0,7.3,0.5,4.7-2.7S33.2,56.3,33.2,56.3z"/>
		<path class="st1" d="M10.4,35.8l4.9-1.9c0,0-3.4-6.5-4.8-2.6C9.3,35.1,10.4,35.8,10.4,35.8z"/>
		<path class="st1" d="M9.5,47.7l4,3.4c0,0,4-6.1,0-5.5C9.5,46.4,9.5,47.7,9.5,47.7z"/>
	</g>
</g>
</svg>
