<?xml version="1.0" encoding="utf-8"?>
<!-- Generator: Adobe Illustrator 20.1.0, SVG Export Plug-In . SVG Version: 6.00 Build 0)  -->
<svg version="1.1" id="Layer_1" xmlns="http://www.w3.org/2000/svg" xmlns:xlink="http://www.w3.org/1999/xlink" x="0px" y="0px"
	 viewBox="0 0 66.2 63.6" style="enable-background:new 0 0 66.2 63.6;" xml:space="preserve">
<style type="text/css">
	.st0{fill:#8D633A;stroke:#603A17;stroke-width:2;stroke-miterlimit:10;}
	.st1{fill:#ED1C24;}
	.st2{fill:none;}
	.st3{fill:#FFFFFF;}
	.st4{font-family:'MyriadPro-Regular';}
	.st5{font-size:3px;}
	.st6{fill:#FFF200;}
	.st7{fill:#51B848;}
	.st8{fill:#2E3192;}
</style>
<g>
	<path class="st0" d="M14.9,5.8c0,0,0.7-0.2,1.7-0.6c0.5-0.1,0.9-0.2,1.3-0.5c1.7-0.5,3.9-1.1,6.4-1.6c3.6-0.8,7.7-1.4,11.2-1.3
		c2.8,0,5.5,0.6,7,1.7c6.4,5,8.5,3.6,11.4,8.5c2.8,5,3.6,6.4,3.6,6.4s4.2,2.2,5.7,5s0.8,8.5-2.2,12.9c-2.8,4.2-8.5,12.9-7.9,15.7
		c0.7,2.8-2.8,5.7-5.7,5c-2.8-0.8-12.9,5.7-18.6,3.6C23.3,58.3,7.7,49.8,4.9,41.9S1.3,31.2,3.4,27c2.2-4.2,2.2-9.2,2.2-9.2
		S5.1,7.5,11.2,6c0.7-0.1,1.4-0.2,2.2-0.1l8.5-2.2"/>
	<g>
		<ellipse transform="matrix(0.7329 -0.6804 0.6804 0.7329 -6.3911 16.1615)" class="st1" cx="17.4" cy="16.2" rx="3.7" ry="3.7"/>
		
			<rect x="16.8" y="13.3" transform="matrix(0.7329 -0.6804 0.6804 0.7329 -5.7417 17.7219)" class="st2" width="5.8" height="5.8"/>
		<text transform="matrix(0.7329 -0.6804 0.6804 0.7329 17.0835 17.5832)" class="st3 st4 st5">m</text>
	</g>
	<g>
		<ellipse transform="matrix(0.6726 -0.74 0.74 0.6726 4.7753 37.6606)" class="st6" cx="45" cy="13.4" rx="3.7" ry="3.7"/>
		<rect x="42.3" y="12.9" transform="matrix(0.6726 -0.74 0.74 0.6726 3.153 38.5928)" class="st2" width="5.8" height="5.8"/>
		<text transform="matrix(0.74 0.6726 -0.6726 0.74 43.5672 13.2478)" class="st3 st4 st5">m</text>
	</g>
	<g>
		<ellipse transform="matrix(0.6726 -0.74 0.74 0.6726 -7.9795 32.934)" class="st6" cx="33.2" cy="25.5" rx="3.7" ry="3.7"/>
		<rect x="30.6" y="24.9" transform="matrix(0.6726 -0.74 0.74 0.6726 -9.6018 33.8661)" class="st2" width="5.8" height="5.8"/>
		<text transform="matrix(0.74 0.6726 -0.6726 0.74 31.8474 25.2998)" class="st3 st4 st5">m</text>
	</g>
	<g>
		<ellipse transform="matrix(0.7329 -0.6804 0.6804 0.7329 -23.1659 25.6283)" class="st1" cx="21.1" cy="42.3" rx="3.7" ry="3.7"/>
		
			<rect x="20.5" y="39.4" transform="matrix(0.7329 -0.6804 0.6804 0.7329 -22.5165 27.1887)" class="st2" width="5.8" height="5.8"/>
		<text transform="matrix(0.7329 -0.6804 0.6804 0.7329 20.7517 43.6789)" class="st3 st4 st5">m</text>
	</g>
	<g>
		<ellipse transform="matrix(0.6726 -0.74 0.74 0.6726 -15.1834 26.6796)" class="st7" cx="22.6" cy="30.5" rx="3.7" ry="3.7"/>
		<rect x="19.9" y="29.9" transform="matrix(0.6726 -0.74 0.74 0.6726 -16.8056 27.6117)" class="st2" width="5.8" height="5.8"/>
		<text transform="matrix(0.74 0.6726 -0.6726 0.74 21.177 30.3142)" class="st3 st4 st5">m</text>
	</g>
	<g>
		<ellipse transform="matrix(0.6726 -0.74 0.74 0.6726 -1.9155 41.4526)" class="st8" cx="45.9" cy="22.9" rx="3.7" ry="3.7"/>
		<rect x="43.3" y="22.3" transform="matrix(0.6726 -0.74 0.74 0.6726 -3.5377 42.3848)" class="st2" width="5.8" height="5.8"/>
		<text transform="matrix(0.74 0.6726 -0.6726 0.74 44.5071 22.7053)" class="st3 st4 st5">m</text>
	</g>
	<g>
		<ellipse transform="matrix(0.7329 -0.6804 0.6804 0.7329 -21.3413 40.9876)" class="st1" cx="41.5" cy="47.7" rx="3.7" ry="3.7"/>
		<rect x="41" y="44.7" transform="matrix(0.7329 -0.6804 0.6804 0.7329 -20.6918 42.548)" class="st2" width="5.8" height="5.8"/>
		<text transform="matrix(0.7329 -0.6804 0.6804 0.7329 41.2232 49.0349)" class="st3 st4 st5">m</text>
	</g>
	<g>
		<ellipse transform="matrix(0.6726 -0.74 0.74 0.6726 -22.8514 20.1619)" class="st6" cx="11.4" cy="35.9" rx="3.7" ry="3.7"/>
		<rect x="8.7" y="35.3" transform="matrix(0.6726 -0.74 0.74 0.6726 -24.4737 21.094)" class="st2" width="5.8" height="5.8"/>
		<text transform="matrix(0.74 0.6726 -0.6726 0.74 9.9768 35.7212)" class="st3 st4 st5">m</text>
	</g>
	<g>
		<ellipse transform="matrix(0.6726 -0.74 0.74 0.6726 -9.2708 48.1668)" class="st7" cx="49.8" cy="34.6" rx="3.7" ry="3.7"/>
		<rect x="47.2" y="34" transform="matrix(0.6726 -0.74 0.74 0.6726 -10.8931 49.0989)" class="st2" width="5.8" height="5.8"/>
		<text transform="matrix(0.74 0.6726 -0.6726 0.74 48.4178 34.3755)" class="st3 st4 st5">m</text>
	</g>
	<g>
		<ellipse transform="matrix(0.7329 -0.6804 0.6804 0.7329 -1.2267 45.3505)" class="st1" cx="57.1" cy="24.2" rx="3.7" ry="3.7"/>
		
			<rect x="56.6" y="21.3" transform="matrix(0.7329 -0.6804 0.6804 0.7329 -0.5773 46.9109)" class="st2" width="5.8" height="5.8"/>
		<text transform="matrix(0.7329 -0.6804 0.6804 0.7329 56.8367 25.6013)" class="st3 st4 st5">m</text>
	</g>
	<g>
		<ellipse transform="matrix(0.6726 -0.74 0.74 0.6726 1.8275 25.5641)" class="st8" cx="29.8" cy="10.7" rx="3.7" ry="3.7"/>
		<rect x="27.2" y="10.1" transform="matrix(0.6726 -0.74 0.74 0.6726 0.2053 26.4962)" class="st2" width="5.8" height="5.8"/>
		<text transform="matrix(0.74 0.6726 -0.6726 0.74 28.4217 10.5307)" class="st3 st4 st5">m</text>
	</g>
	<g>
		<ellipse transform="matrix(0.6726 -0.74 0.74 0.6726 -17.2018 37.5762)" class="st8" cx="33.9" cy="38.2" rx="3.7" ry="3.7"/>
		<rect x="31.2" y="37.7" transform="matrix(0.6726 -0.74 0.74 0.6726 -18.8241 38.5083)" class="st2" width="5.8" height="5.8"/>
		<text transform="matrix(0.74 0.6726 -0.6726 0.74 32.4827 38.0437)" class="st3 st4 st5">m</text>
	</g>
	<g>
		<ellipse transform="matrix(0.6726 -0.74 0.74 0.6726 -27.573 38.3565)" class="st7" cx="29.6" cy="50.3" rx="3.7" ry="3.7"/>
		<rect x="26.9" y="49.8" transform="matrix(0.6726 -0.74 0.74 0.6726 -29.1952 39.2887)" class="st2" width="5.8" height="5.8"/>
		<text transform="matrix(0.74 0.6726 -0.6726 0.74 28.179 50.1553)" class="st3 st4 st5">m</text>
	</g>
</g>
</svg>
