<?xml version="1.0" encoding="utf-8"?>
<!-- Generator: Adobe Illustrator 20.1.0, SVG Export Plug-In . SVG Version: 6.00 Build 0)  -->
<svg version="1.1" id="Layer_1" xmlns="http://www.w3.org/2000/svg" xmlns:xlink="http://www.w3.org/1999/xlink" x="0px" y="0px"
	 viewBox="0 0 66.2 63.6" style="enable-background:new 0 0 66.2 63.6;" xml:space="preserve">
<style type="text/css">
	.st0{fill:#FAE3AA;stroke:#E0BE7D;stroke-width:2;stroke-miterlimit:10;}
	.st1{fill:#5D5AA7;}
	.st2{fill:#D34E99;}
	.st3{fill:#71BF49;}
</style>
<path class="st0" d="M15.2,5.8c0,0,0.6-0.2,1.7-0.5c0.4-0.1,0.9-0.2,1.3-0.4c1.7-0.4,3.9-1.1,6.3-1.6c3.5-0.8,7.6-1.4,11-1.3
	c2.8,0,5.4,0.5,6.9,1.7c6.3,5,8.4,3.6,11.3,8.5c2.8,5,3.5,6.4,3.5,6.4s4.2,2.2,5.6,5s0.8,8.5-2.1,12.8C57.9,40.6,52.3,49.2,53,52
	c0.6,2.8-2.8,5.6-5.6,5c-2.8-0.8-12.6,5.6-18.2,3.6C23.6,58.5,8.2,50,5.4,42.2C2.6,34.4,1.9,31.6,4,27.3s2.1-9.2,2.1-9.2
	S5.6,7.7,11.7,6.2c0.6-0.1,1.4-0.2,2.1-0.1l8.4-2.2"/>
<polygon class="st1" points="52.8,29.1 55.9,31.6 57.6,30.3 "/>
<polyline class="st2" points="43.6,29.6 41.7,32 46.5,33.1 "/>
<polygon class="st3" points="45.5,36.7 48.6,39.2 50.3,37.8 "/>
<polygon class="st1" points="38.9,5.3 42,7.8 43.7,6.4 "/>
<polyline class="st2" points="29.6,5.7 27.8,8.1 32.6,9.3 "/>
<polygon class="st3" points="31.6,12.8 34.7,15.4 36.4,14 "/>
<polygon class="st1" points="38.9,5.3 42,7.8 43.7,6.4 "/>
<polyline class="st2" points="29.6,5.7 27.8,8.1 32.6,9.3 "/>
<polygon class="st3" points="31.6,12.8 34.7,15.4 36.4,14 "/>
<polygon class="st1" points="38.9,5.3 42,7.8 43.7,6.4 "/>
<polyline class="st2" points="29.6,5.7 27.8,8.1 32.6,9.3 "/>
<polygon class="st3" points="31.6,12.8 34.7,15.4 36.4,14 "/>
<polygon class="st1" points="49.1,20.3 46.1,24.1 47.4,25.3 "/>
<polyline class="st2" points="49.7,11.4 47.3,10.3 45.6,15.3 "/>
<polygon class="st3" points="41.9,15.5 38.9,19.3 40.2,20.6 "/>
<polygon class="st1" points="49.1,20.3 46.1,24.1 47.4,25.3 "/>
<polyline class="st2" points="49.7,11.4 47.3,10.3 45.6,15.3 "/>
<polygon class="st3" points="41.9,15.5 38.9,19.3 40.2,20.6 "/>
<polygon class="st1" points="49.1,20.3 46.1,24.1 47.4,25.3 "/>
<polyline class="st2" points="32.6,39.3 30.7,41.7 35.5,42.9 "/>
<polygon class="st3" points="41.9,15.5 38.9,19.3 40.2,20.6 "/>
<polygon class="st1" points="45.8,44.3 48.8,46.9 50.1,45.8 "/>
<polyline class="st2" points="40.5,41.4 38.7,43.9 43.4,45 "/>
<polygon class="st3" points="36.4,34.7 37.1,38.6 38.8,38.6 "/>
<polygon class="st1" points="12.6,28.3 9.9,25.4 8,26.5 "/>
<polyline class="st2" points="21.8,29.3 24,27.2 19.5,25.3 "/>
<polygon class="st3" points="20.9,22 18.2,19 16.3,20.1 "/>
<polygon class="st1" points="22.8,54 20.1,51 18.2,52.1 "/>
<polyline class="st2" points="32,54.9 34.2,52.8 29.7,51 "/>
<polygon class="st3" points="31.1,47.6 28.4,44.6 26.5,45.8 "/>
<polygon class="st1" points="22.8,54 20.1,51 18.2,52.1 "/>
<polyline class="st2" points="32,54.9 34.2,52.8 29.7,51 "/>
<polygon class="st3" points="31.1,47.6 28.4,44.6 26.5,45.8 "/>
<polygon class="st1" points="22.8,54 20.1,51 18.2,52.1 "/>
<polyline class="st2" points="32,54.9 34.2,52.8 29.7,51 "/>
<polygon class="st3" points="31.1,47.6 28.4,44.6 26.5,45.8 "/>
<polygon class="st1" points="14.9,37.6 18.5,34.3 17.4,32.9 "/>
<polyline class="st2" points="13.1,46.4 15.2,47.8 17.7,43 "/>
<polygon class="st3" points="21.3,43.4 24.9,40.1 23.8,38.7 "/>
<polygon class="st1" points="14.9,37.6 18.5,34.3 17.4,32.9 "/>
<polyline class="st2" points="13.1,46.4 15.2,47.8 17.7,43 "/>
<polygon class="st3" points="21.3,43.4 24.9,40.1 23.8,38.7 "/>
<polygon class="st1" points="14.9,37.6 18.5,34.3 17.4,32.9 "/>
<polyline class="st2" points="34.1,21.2 36.3,19.1 31.8,17.3 "/>
<polygon class="st3" points="21.3,43.4 24.9,40.1 23.8,38.7 "/>
<polygon class="st1" points="21.8,14.3 19.3,11.3 17.7,12.2 "/>
<polyline class="st2" points="26.6,18 28.8,15.9 24.2,14 "/>
<polygon class="st3" points="29.6,25.3 29.6,21.3 27.8,21 "/>
<polyline class="st2" points="7.5,30.4 5.6,32.8 10.4,34 "/>
<polygon class="st3" points="24.1,34 27.2,36.5 28.9,35.1 "/>
<polygon class="st1" points="36.3,25.6 39.4,28.1 41.1,26.7 "/>
<polygon class="st1" points="27.8,30.4 30.9,32.9 32.6,31.5 "/>
<polyline class="st2" points="12.5,11.5 10.7,14 15.5,15.1 "/>
<polygon class="st3" points="53.3,19.4 50.3,23.3 51.6,24.5 "/>
<polygon class="st3" points="11.8,36.1 8.8,39.9 10.1,41.1 "/>
<polygon class="st3" points="42.8,48.4 39.8,52.3 41.1,53.5 "/>
<polyline class="st2" points="11.3,17.7 9.4,20.1 14.2,21.2 "/>
</svg>
