<?xml version="1.0" encoding="utf-8"?>
<!-- Generator: Adobe Illustrator 20.1.0, SVG Export Plug-In . SVG Version: 6.00 Build 0)  -->
<svg version="1.1" id="Layer_1" xmlns="http://www.w3.org/2000/svg" xmlns:xlink="http://www.w3.org/1999/xlink" x="0px" y="0px"
	 viewBox="0 0 378 80.9" style="enable-background:new 0 0 378 80.9;" xml:space="preserve">
<style type="text/css">
	.st0{fill:#8C6239;stroke:#603813;stroke-width:2;stroke-miterlimit:10;}
	.st1{fill:#42210B;}
	.st2{fill:none;}
	.st3{enable-background:new    ;}
	.st4{fill:#42210B;stroke:#000000;stroke-miterlimit:10;}
</style>
<g>
	<path class="st0" d="M88.9,12.8c0,0,0.7-0.2,1.8-0.6c0.5-0.1,0.9-0.2,1.4-0.5c1.8-0.5,4.1-1.1,6.7-1.7c3.7-0.8,8-1.5,11.7-1.4
		c2.9,0,5.7,0.6,7.3,1.8c6.7,5.2,8.8,3.7,11.9,8.8c2.9,5.2,3.7,6.7,3.7,6.7s4.4,2.3,5.9,5.2s0.8,8.8-2.3,13.4
		c-2.9,4.4-8.8,13.4-8.2,16.3c0.7,2.9-2.9,5.9-5.9,5.2c-2.9-0.8-13.4,5.9-19.3,3.7c-5.9-2.2-22.2-11.1-25.1-19.3S74.8,39.3,77,34.9
		c2.3-4.4,2.3-9.6,2.3-9.6S78.7,14.6,85.1,13c0.7-0.1,1.5-0.2,2.3-0.1l8.8-2.3"/>
	<g>
		<path class="st1" d="M85.5,18.2c0,0,9.2,7,2.8,6.3s-2.8-5.7-2.8-5.7"/>
		<path class="st1" d="M101.7,18.2l4.2,3.5c0,0,4.2-6.3,0-5.7C101.7,16.8,101.7,18.2,101.7,18.2z"/>
		<path class="st1" d="M130.3,21.3l-3.9-3.9c0,0-4.8,5.9-0.6,5.7C130.2,22.8,130.3,21.3,130.3,21.3z"/>
		<path class="st1" d="M105,43.1l-4.2-3.6c0,0-4.4,6.2-0.1,5.7S105,43.1,105,43.1z"/>
		<path class="st1" d="M129.3,37.4l4.2,3.5c0,0,4.2-6.3,0-5.7S129.3,37.4,129.3,37.4z"/>
		<path class="st1" d="M111,37.3l5.3-1.5c0,0-2.8-7.1-4.6-3.2C109.8,36.5,111,37.3,111,37.3z"/>
		<path class="st1" d="M118,50.8l4.2,3.5c0,0,4.2-6.3,0-5.7C118,49.4,118,50.8,118,50.8z"/>
		<path class="st1" d="M103.4,61.3l4.4-3.3c0,0-5.1-5.7-5.4-1.4C102,61,103.4,61.3,103.4,61.3z"/>
		<path class="st1" d="M126,66.5l3.4-4.3c0,0-6.5-4.1-5.7,0.1C124.7,66.6,126,66.5,126,66.5z"/>
		<path class="st1" d="M108,65.4l-0.9,5.4c0,0,7.6,0.5,4.9-2.8S108,65.4,108,65.4z"/>
		<path class="st1" d="M84.3,44l5.1-2c0,0-3.5-6.8-5-2.7C83.1,43.3,84.3,44,84.3,44z"/>
		<path class="st1" d="M83.3,56.4l4.2,3.5c0,0,4.2-6.3,0-5.7C83.3,55.1,83.3,56.4,83.3,56.4z"/>
	</g>
</g>
<g>
	<path class="st0" d="M158.5,12.3c0,0,0.7-0.2,1.8-0.6c0.5-0.1,0.9-0.2,1.4-0.5c1.8-0.5,4.1-1.1,6.7-1.7c3.7-0.8,8-1.5,11.7-1.4
		c2.9,0,5.7,0.6,7.3,1.8c6.7,5.2,8.8,3.7,11.9,8.8c2.9,5.2,3.7,6.7,3.7,6.7s4.4,2.3,5.9,5.2s0.8,8.8-2.3,13.4s-8.8,13.4-8.2,16.3
		s-2.9,5.9-5.9,5.2s-13.4,5.9-19.3,3.7c-5.9-2.3-22.2-11.1-25.1-19.3c-2.9-8.2-3.7-11.1-1.5-15.5c2.3-4.4,2.3-9.6,2.3-9.6
		s-0.6-10.9,5.9-12.5c0.7-0.1,1.5-0.2,2.3-0.1l8.8-2.3"/>
	<g>
		<path class="st1" d="M155.1,17.7c0,0,9.2,7,2.8,6.3c-6.3-0.7-2.8-5.7-2.8-5.7"/>
		<path class="st1" d="M171.4,17.7l4.2,3.5c0,0,4.2-6.3,0-5.7C171.4,16.2,171.4,17.7,171.4,17.7z"/>
		<path class="st1" d="M199.9,20.8l-3.9-3.9c0,0-4.8,5.9-0.6,5.7C199.7,22.3,199.9,20.8,199.9,20.8z"/>
		<path class="st1" d="M174.5,42.4l-4.2-3.6c0,0-4.4,6.2-0.1,5.7C174.5,43.9,174.5,42.4,174.5,42.4z"/>
		<path class="st1" d="M198.9,36.7l4.2,3.5c0,0,4.2-6.3,0-5.7C198.9,35.4,198.9,36.7,198.9,36.7z"/>
		<path class="st1" d="M180.6,36.7l5.3-1.5c0,0-2.8-7.1-4.6-3.2C179.4,35.9,180.6,36.7,180.6,36.7z"/>
		<path class="st1" d="M187.6,50.2l4.2,3.5c0,0,4.2-6.3,0-5.7C187.6,48.7,187.6,50.2,187.6,50.2z"/>
		<path class="st1" d="M173,60.7l4.4-3.3c0,0-5.1-5.7-5.4-1.4C171.6,60.4,173,60.7,173,60.7z"/>
		<path class="st1" d="M195.7,66l3.4-4.3c0,0-6.5-4.1-5.7,0.1S195.7,66,195.7,66z"/>
		<path class="st1" d="M177.6,64.8l-0.9,5.4c0,0,7.6,0.5,4.9-2.8S177.6,64.8,177.6,64.8z"/>
		<path class="st1" d="M153.9,43.3l5.1-2c0,0-3.5-6.8-5-2.7C152.7,42.6,153.9,43.3,153.9,43.3z"/>
		<path class="st1" d="M152.9,55.9l4.2,3.5c0,0,4.2-6.3,0-5.7C152.9,54.4,152.9,55.9,152.9,55.9z"/>
	</g>
</g>
<rect y="7.5" class="st2" width="102.8" height="63.7"/>
<g class="st3">
	<path class="st4" d="M74.4,43c-0.3,2-1.7,3.3-4.5,3.8c-0.5,0.1-1.1,0-1.8-0.3c-0.7-0.2-1.2-0.3-1.7-0.3s-1.1,0.1-1.7,0.2
		c-3.3,7.5-5.9,12.5-7.8,15c-3.4,4.8-7.8,7.8-13.3,9.3c-1.4,0.4-2.9,0.6-4.5,0.6c-1.5,0-5.3-0.7-11.4-2c-2.3-0.4-5.9-1.1-10.8-2.2
		c-4.9-1.4-8.8-4.6-11.5-9.7C2.9,52.8,1.7,47.3,1.7,41c0-8.2,2-15.6,5.9-22c4.4-7,10-11,17-11.8c0.6,0,1.3-0.1,2-0.1
		c4.3,0,9.4,0.8,15.6,2.4c6.5,1.7,11,3.6,13.3,5.6c1.9,1.6,3.1,3.8,3.7,6.3c0.8,2.9,1.2,4.5,1.4,4.7c0.3,0.9,0.6,1.9,1,3.1
		c0.1,0.7-0.3,1.4-1.3,2.3c-0.9,0.9-1.8,1.4-2.7,1.6c-1.1,0.3-4.4-0.1-10-1.1c-5.5-1-8.8-1.7-10-2.3c-1.5-0.6-2.2-1.8-1.9-3.5
		c0-0.2,0.2-0.6,0.6-0.9c0.4-0.4,0.6-0.7,0.6-1c0-3.5-0.7-5.3-2-5.3c-2.9,0-5.4,2.8-7.7,8.6c-2,5.4-3.1,11.3-3.1,17.7
		c0,9.5,2.3,15,6.8,16.4c1.4,0.4,3.2-1,5.5-4.1c2.3-3.2,3.7-6.1,4.1-8.9c-1.4-0.6-4-1.4-7.8-2.3c-3.1-0.8-4.7-1.4-5-1.9
		c-0.3-0.8,0.1-1.8,1.3-3.2c1.2-1.4,2.4-2.3,3.8-2.7c1.3-0.4,3.2-0.6,5.5-0.7c3.2,0,5.2,0,5.9-0.1c1.4-0.1,3.8-0.6,7-1.3
		c2.6-0.6,4.6-0.9,6-0.9c0.5,0,1,0,1.4,0.1c2.1,0.3,5.3,1.4,9.4,3.4C72.4,40.9,74.5,42.3,74.4,43z"/>
</g>
<rect x="183.6" y="10.9" class="st2" width="102.8" height="62.3"/>
<g class="st3">
	<path class="st4" d="M274.9,47.9c-1.2,0.9-3.2,1.4-6,1.4c-2.4,0-4.8,0.1-7.1,0.1c-1.1,5.2-3.2,10-6.3,14.3c-3.3,4.4-6.7,7.1-10.4,8
		c-0.6,0.2-1.3,0.2-2.1,0.2c-3.4,0-7.3-1.1-11.7-3.4c-4.8-2.5-8.7-5.7-11.8-9.6c-3.5-4.6-5.3-9.6-5.3-14.9
		c0.1-8.8,2.2-16.6,6.3-23.3c4.9-8,11.5-12.1,19.9-12.1c6.3,0,11.4,2.3,15.3,6.9c3,3.5,5.1,7.9,6.3,13.4c1.4,1,2.1,2.1,2.1,3.3
		c0,1.3-0.7,2.3-2.1,3.1s-3.1,1.2-5.1,1.2c-2.3,0-4.8-0.3-7.4-1c-2.6-0.7-4.4-1.4-5.2-2.1c-0.5-0.5-0.8-0.9-0.8-1.4
		c0,0.3,0.3-0.7,1-2.9c-1.2-5.8-2.6-8.7-4.1-8.7c-1.4,0-3.1,2.8-5.3,8.3c-2.3,5.8-3.5,10.9-3.5,15.4c0,3.2,0.9,6.7,2.6,10.7
		c1.8,4,3.3,6,4.6,6c1.2,0,2.6-1.1,4.1-3.2c1.5-2.2,2.6-4.3,3.1-6.6c-2.1-0.6-4.1-1.5-6.2-2.9c-2.3-1.5-3.5-2.9-3.5-4.1
		c0-0.8,0.6-1.5,1.8-2.1s3.2-0.9,6-0.9c7.6-0.1,11.8-0.2,12.6-0.2c1.3-0.4,2.6-0.7,4.1-1.1c1.4-0.4,2.7-0.6,3.8-0.6
		c2.7,0,5.3,0.7,7.8,2.1c2.5,1.4,3.8,2.9,3.8,4.4C276.3,46.4,275.8,47.2,274.9,47.9z"/>
</g>
<rect x="251.4" y="9.7" class="st2" width="97.8" height="63.5"/>
<g class="st3">
	<path class="st4" d="M321.6,59.6c0.5,0.6,0.7,1.3,0.7,2c0,1.3-0.6,2.5-1.8,3.6c-1.2,1.2-2.7,1.9-4.3,2.3c-1.6,0.4-3.9,0.6-7,0.6
		c-3,0-5.2,0.1-6.5,0.4s-2.9,1-4.6,2.3c-1.5,1.1-4.1,1.8-7.9,2.1c-2.3,0.2-4.6-0.3-7-1.5s-4-2.7-4.9-4.4c-0.2-0.4-0.2-0.7-0.2-1
		c0-0.7,0.6-1.4,1.7-2.2s1.7-1.5,1.6-2.1l-5-45.6c0-0.2-0.4-0.7-1.2-1.4c-0.8-0.7-1.2-1.3-1.2-1.8c0-0.7,0.6-1.4,1.8-2
		c1.7-1,4-1.4,7.1-1.4c2.6,0,5.1,0.4,7.6,1.1c2.4,0.7,3.9,1.5,4.6,2.5c0.4,0.6,0.6,1,0.6,1.4c0,0.5-0.4,0.9-1.1,1.4
		c-0.7,0.5-1,0.9-1,1.3l4.3,41.6L305,57c1.5-0.5,3-0.9,4.6-1.3c1.5-0.4,2.8-0.6,3.9-0.6C316.2,54.7,319,56.3,321.6,59.6z"/>
</g>
<rect x="308.5" y="7.8" class="st2" width="97.8" height="65.4"/>
<g class="st3">
	<path class="st4" d="M366.9,18.3c-1.8,1-4,1.4-6.8,1.4c-1.2,0-2.5-0.1-4-0.2c-2.2,0.5-4.2,0.9-6,1.4c-4.3,1.1-7.2,2-8.6,2.7
		c-0.5,5.2-0.5,11.2,0,17.9c0.5-0.2,1.6-0.4,3.5-0.6c0.9-1.1,2.5-1.6,4.7-1.6s4.8,0.7,7.8,2.1c3,1.4,4.5,2.8,4.5,4.1
		c0,0.4-0.1,0.7-0.3,1.1c-0.9,1.5-2.4,2.5-4.3,2.9c-1.2,0.3-2.9,0.3-5.1,0.2s-3.7-0.1-4.3,0.1c-1.8,0.6-3.9,1.2-6.5,2
		c0,4.5,0.2,7.4,0.7,8.7c3.2-0.5,5.9-1.1,8.1-1.8c0.4-0.3,0.8-0.7,1.2-1c0.8-0.6,2.2-0.8,4.2-0.7c2.2,0.1,4.4,0.9,6.7,2.4
		c2.3,1.5,3.5,3,3.5,4.6c0,1.4-0.9,2.4-2.7,3c-1.8,0.7-4.7,0.9-8.9,0.7l-10.9,3.5c-0.5,0.2-1.5,0.7-3,1.5c-1.2,0.7-2.2,1-3.1,1
		c-0.3,0-0.7,0-1-0.1c-4.1-0.8-7.8-2.9-11.1-6.3c-0.2-0.2-0.3-0.6-0.3-0.9c0-0.2,0.4-1.2,1.3-3c-0.8-14.6-1-30.2-0.5-46.7
		c-0.5-0.5-0.8-1-0.8-1.5c0-1.7,2.3-2.7,7.1-3.2c1-0.1,2.3,0.1,3.8,0.5c1,0.4,2,0.7,2.9,1l13.9-2.9c0.3,0,1.2-0.4,2.7-0.9
		c1-0.4,2.2-0.6,3.5-0.6c0.6,0,1.3,0.1,2.2,0.2c1.7,0.2,3.4,1.1,5,2.6c1.7,1.5,2.5,3,2.5,4.3C368.2,17.2,367.8,17.8,366.9,18.3z"/>
</g>
</svg>
