<?xml version="1.0" encoding="utf-8"?>
<!-- Generator: Adobe Illustrator 21.0.0, SVG Export Plug-In . SVG Version: 6.00 Build 0)  -->
<svg version="1.1" id="Layer_1" xmlns="http://www.w3.org/2000/svg" xmlns:xlink="http://www.w3.org/1999/xlink" x="0px" y="0px"
	 viewBox="0 0 379.3 80.9" style="enable-background:new 0 0 379.3 80.9;" xml:space="preserve">
<style type="text/css">
	.st0{fill:#FAE3AB;stroke:#F9DA95;stroke-width:2;stroke-miterlimit:10;}
	.st1{fill:#42210B;}
	.st2{fill:none;}
	.st3{fill:#FAE3AB;}
	.st4{font-family:'Goma-Cookie__G';}
	.st5{font-size:76.1716px;}
	.st6{font-size:76.0807px;}
	.st7{fill:#5D4BDD;}
	.st8{fill:#D34C99;}
	.st9{fill:#49EA51;}
</style>
<path class="st0" d="M172.4,124.2c0,0,0.6-0.2,1.6-0.5c0.4-0.1,0.8-0.2,1.2-0.4c1.6-0.4,3.6-1,5.9-1.5c3.3-0.7,7.1-1.3,10.3-1.2
	c2.6,0,5,0.5,6.4,1.6c5.9,4.6,7.8,3.3,10.5,7.8c2.6,4.6,3.3,5.9,3.3,5.9s3.9,2,5.2,4.6c1.3,2.6,0.7,7.8-2,11.8s-7.8,11.8-7.2,14.4
	s-2.6,5.2-5.2,4.6c-2.6-0.6-11.8,5.2-17,3.3c-5.2-2-19.6-9.8-22.2-17c-2.6-7.2-3.3-9.8-1.3-13.7c2-3.9,2-8.5,2-8.5s-0.5-9.6,5.2-11
	c0.6-0.1,1.3-0.2,2-0.1l7.8-2"/>
<g>
	<path class="st1" d="M169.4,129c0,0,8.1,6.2,2.5,5.6c-5.6-0.6-2.5-5-2.5-5"/>
	<path class="st1" d="M183.8,129l3.7,3.1c0,0,3.7-5.6,0-5C183.8,127.7,183.8,129,183.8,129z"/>
	<path class="st1" d="M209,131.7l-3.4-3.4c0,0-4.2,5.2-0.5,5C208.8,133.1,209,131.7,209,131.7z"/>
	<path class="st1" d="M186.6,150.8l-3.7-3.2c0,0-3.9,5.5-0.1,5C186.6,152.1,186.6,150.8,186.6,150.8z"/>
	<path class="st1" d="M208.1,145.8l3.7,3.1c0,0,3.7-5.6,0-5C208.1,144.6,208.1,145.8,208.1,145.8z"/>
	<path class="st1" d="M191.9,145.8l4.7-1.3c0,0-2.5-6.3-4.1-2.8C190.9,145.1,191.9,145.8,191.9,145.8z"/>
	<path class="st1" d="M198.1,157.7l3.7,3.1c0,0,3.7-5.6,0-5C198.1,156.4,198.1,157.7,198.1,157.7z"/>
	<path class="st1" d="M185.2,167l3.9-2.9c0,0-4.5-5-4.8-1.2C184,166.7,185.2,167,185.2,167z"/>
	<path class="st1" d="M205.3,171.6l3-3.8c0,0-5.7-3.6-5,0.1S205.3,171.6,205.3,171.6z"/>
	<path class="st1" d="M189.3,170.6l-0.8,4.8c0,0,6.7,0.4,4.3-2.5C190.4,170,189.3,170.6,189.3,170.6z"/>
	<path class="st1" d="M168.4,151.6l4.5-1.8c0,0-3.1-6-4.4-2.4C167.3,151,168.4,151.6,168.4,151.6z"/>
	<path class="st1" d="M167.5,162.7l3.7,3.1c0,0,3.7-5.6,0-5C167.5,161.4,167.5,162.7,167.5,162.7z"/>
</g>
<rect y="6" class="st2" width="68.3" height="63.7"/>
<text transform="matrix(1 0 0 1 0 68.5376)" class="st3 st4 st5">G</text>
<rect x="183.6" y="10.9" class="st2" width="102.8" height="62.3"/>
<text transform="matrix(1 0 0 1 183.5732 71.8647)" class="st3 st4 st5">G</text>
<rect x="251.4" y="9.7" class="st2" width="97.8" height="63.5"/>
<text transform="matrix(1 0 0 1 251.3623 70.6167)" class="st3 st4 st6">L</text>
<rect x="308.5" y="7.8" class="st2" width="97.8" height="65.4"/>
<text transform="matrix(1 0 0 1 308.5381 68.772)" class="st3 st4 st6">E</text>
<g>
	<path class="st0" d="M41,127.6c0,0,0.6-0.2,1.7-0.5c0.4-0.1,0.9-0.2,1.3-0.4c1.7-0.4,3.9-1.1,6.3-1.6c3.5-0.8,7.6-1.4,11-1.3
		c2.8,0,5.4,0.5,6.9,1.7c6.3,5,8.4,3.6,11.3,8.5c2.8,5,3.5,6.4,3.5,6.4s4.2,2.2,5.6,5c1.4,2.8,0.8,8.5-2.1,12.8
		c-2.8,4.2-8.4,12.8-7.7,15.6c0.6,2.8-2.8,5.6-5.6,5c-2.8-0.8-12.6,5.6-18.2,3.6c-5.6-2.1-21-10.6-23.8-18.4
		c-2.8-7.8-3.5-10.6-1.4-14.9s2.1-9.2,2.1-9.2s-0.5-10.4,5.6-11.9c0.6-0.1,1.4-0.2,2.1-0.1l8.4-2.2"/>
	<polygon class="st7" points="78.6,151.9 81.7,154.4 83.4,153.1 	"/>
	<polyline class="st8" points="69.4,152.4 67.5,154.8 72.3,155.9 	"/>
	<polygon class="st9" points="71.3,159.5 74.4,162 76.1,160.6 	"/>
	<polygon class="st7" points="64.7,128.1 67.8,130.6 69.5,129.2 	"/>
	<polyline class="st8" points="55.4,128.5 53.6,130.9 58.4,132.1 	"/>
	<polygon class="st9" points="57.4,135.6 60.5,138.2 62.2,136.8 	"/>
	<polygon class="st7" points="64.7,128.1 67.8,130.6 69.5,129.2 	"/>
	<polyline class="st8" points="55.4,128.5 53.6,130.9 58.4,132.1 	"/>
	<polygon class="st9" points="57.4,135.6 60.5,138.2 62.2,136.8 	"/>
	<polygon class="st7" points="64.7,128.1 67.8,130.6 69.5,129.2 	"/>
	<polyline class="st8" points="55.4,128.5 53.6,130.9 58.4,132.1 	"/>
	<polygon class="st9" points="57.4,135.6 60.5,138.2 62.2,136.8 	"/>
	<polygon class="st7" points="74.9,143.1 71.9,146.9 73.2,148.1 	"/>
	<polyline class="st8" points="75.5,134.2 73.1,133.1 71.4,138.1 	"/>
	<polygon class="st9" points="67.7,138.3 64.7,142.1 66,143.4 	"/>
	<polygon class="st7" points="74.9,143.1 71.9,146.9 73.2,148.1 	"/>
	<polyline class="st8" points="75.5,134.2 73.1,133.1 71.4,138.1 	"/>
	<polygon class="st9" points="67.7,138.3 64.7,142.1 66,143.4 	"/>
	<polygon class="st7" points="74.9,143.1 71.9,146.9 73.2,148.1 	"/>
	<polyline class="st8" points="58.4,162.1 56.5,164.5 61.3,165.7 	"/>
	<polygon class="st9" points="67.7,138.3 64.7,142.1 66,143.4 	"/>
	<polygon class="st7" points="71.6,167.1 74.6,169.7 75.9,168.6 	"/>
	<polyline class="st8" points="66.3,164.2 64.5,166.7 69.2,167.8 	"/>
	<polygon class="st9" points="62.2,157.5 62.9,161.4 64.6,161.4 	"/>
	<polygon class="st7" points="38.4,151.1 35.7,148.2 33.8,149.3 	"/>
	<polyline class="st8" points="47.6,152.1 49.8,150 45.3,148.1 	"/>
	<polygon class="st9" points="46.7,144.8 44,141.8 42.1,142.9 	"/>
	<polygon class="st7" points="48.6,176.8 45.9,173.8 44,174.9 	"/>
	<polyline class="st8" points="57.8,177.7 60,175.6 55.5,173.8 	"/>
	<polygon class="st9" points="56.9,170.4 54.2,167.4 52.3,168.6 	"/>
	<polygon class="st7" points="48.6,176.8 45.9,173.8 44,174.9 	"/>
	<polyline class="st8" points="57.8,177.7 60,175.6 55.5,173.8 	"/>
	<polygon class="st9" points="56.9,170.4 54.2,167.4 52.3,168.6 	"/>
	<polygon class="st7" points="48.6,176.8 45.9,173.8 44,174.9 	"/>
	<polyline class="st8" points="57.8,177.7 60,175.6 55.5,173.8 	"/>
	<polygon class="st9" points="56.9,170.4 54.2,167.4 52.3,168.6 	"/>
	<polygon class="st7" points="40.7,160.4 44.3,157.1 43.2,155.7 	"/>
	<polyline class="st8" points="38.9,169.2 41,170.6 43.5,165.8 	"/>
	<polygon class="st9" points="47.1,166.2 50.7,162.9 49.6,161.5 	"/>
	<polygon class="st7" points="40.7,160.4 44.3,157.1 43.2,155.7 	"/>
	<polyline class="st8" points="38.9,169.2 41,170.6 43.5,165.8 	"/>
	<polygon class="st9" points="47.1,166.2 50.7,162.9 49.6,161.5 	"/>
	<polygon class="st7" points="40.7,160.4 44.3,157.1 43.2,155.7 	"/>
	<polyline class="st8" points="59.9,144 62.1,141.9 57.6,140.1 	"/>
	<polygon class="st9" points="47.1,166.2 50.7,162.9 49.6,161.5 	"/>
	<polygon class="st7" points="47.6,137.1 45.1,134.1 43.5,135 	"/>
	<polyline class="st8" points="52.4,140.8 54.6,138.7 50,136.8 	"/>
	<polygon class="st9" points="55.4,148.1 55.4,144.1 53.6,143.8 	"/>
	<polyline class="st8" points="33.3,153.2 31.4,155.6 36.2,156.8 	"/>
	<polygon class="st9" points="49.9,156.8 53,159.3 54.7,157.9 	"/>
	<polygon class="st7" points="62.1,148.4 65.2,150.9 66.9,149.5 	"/>
	<polygon class="st7" points="53.6,153.2 56.7,155.7 58.4,154.3 	"/>
	<polyline class="st8" points="38.3,134.3 36.5,136.8 41.3,137.9 	"/>
	<polygon class="st9" points="79.1,142.2 76.1,146.1 77.4,147.3 	"/>
	<polygon class="st9" points="37.6,158.9 34.6,162.7 35.9,163.9 	"/>
	<polygon class="st9" points="68.6,171.2 65.6,175.1 66.9,176.3 	"/>
	<polyline class="st8" points="37.1,140.5 35.2,142.9 40,144 	"/>
</g>
<g>
	<path class="st0" d="M133.7,18.2c0,0,0.6-0.3,1.5-0.8c0.4-0.2,0.8-0.4,1.1-0.6c1.5-0.7,3.4-1.7,5.6-2.7c3.1-1.4,6.8-2.7,10-3.3
		c2.6-0.5,5.1-0.5,6.7,0.3c6.8,3.4,8.4,1.8,12,5.7c3.5,4.1,4.5,5.3,4.5,5.3s4.3,1.2,6.1,3.6c1.8,2.4,2.3,7.7,0.4,12.3
		c-1.8,4.5-5.4,13.5-4.2,16c1.1,2.5-1.5,5.8-4.2,5.7c-2.7-0.2-10.7,7.6-16.2,6.7c-5.6-0.9-21.5-5.9-25.6-12.7
		c-4.1-6.7-5.3-9.2-4.1-13.5c1.2-4.3,0.3-9,0.3-9s-2.5-9.6,2.9-12.1c0.6-0.2,1.3-0.5,2-0.5l7.4-3.6"/>
	<polygon class="st7" points="173.2,33.7 176.5,35.5 177.8,33.8 	"/>
	<polyline class="st8" points="164.6,35.8 163.3,38.4 168,38.6 	"/>
	<polygon class="st9" points="167.8,42.1 171.2,43.8 172.5,42.2 	"/>
	<polygon class="st7" points="155.8,14.2 159.1,15.9 160.4,14.3 	"/>
	<polyline class="st8" points="147.2,16.3 145.9,18.9 150.6,19.1 	"/>
	<polygon class="st9" points="150.4,22.5 153.8,24.3 155.1,22.7 	"/>
	<polygon class="st7" points="155.8,14.2 159.1,15.9 160.4,14.3 	"/>
	<polyline class="st8" points="147.2,16.3 145.9,18.9 150.6,19.1 	"/>
	<polygon class="st9" points="150.4,22.5 153.8,24.3 155.1,22.7 	"/>
	<polygon class="st7" points="155.8,14.2 159.1,15.9 160.4,14.3 	"/>
	<polyline class="st8" points="147.2,16.3 145.9,18.9 150.6,19.1 	"/>
	<polygon class="st9" points="150.4,22.5 153.8,24.3 155.1,22.7 	"/>
	<polygon class="st7" points="168.1,26.2 166,30.3 167.4,31.2 	"/>
	<polyline class="st8" points="166.9,17.8 164.5,17.2 163.8,22.2 	"/>
	<polygon class="st9" points="160.5,23.1 158.4,27.2 159.8,28.1 	"/>
	<polygon class="st7" points="168.1,26.2 166,30.3 167.4,31.2 	"/>
	<polyline class="st8" points="166.9,17.8 164.5,17.2 163.8,22.2 	"/>
	<polygon class="st9" points="160.5,23.1 158.4,27.2 159.8,28.1 	"/>
	<polygon class="st7" points="168.1,26.2 166,30.3 167.4,31.2 	"/>
	<polyline class="st8" points="156.3,47 155,49.6 159.7,49.7 	"/>
	<polygon class="st9" points="160.5,23.1 158.4,27.2 159.8,28.1 	"/>
	<polygon class="st7" points="169.5,49.1 172.7,51 173.8,49.7 	"/>
	<polyline class="st8" points="164,47.4 162.8,50 167.4,50.2 	"/>
	<polygon class="st9" points="159,42 160.3,45.5 161.9,45.1 	"/>
	<polygon class="st7" points="135.6,40.5 132.6,38.3 131,39.7 	"/>
	<polyline class="st8" points="144.4,39.7 146,37.3 141.4,36.4 	"/>
	<polygon class="st9" points="142.2,33 139.1,30.8 137.6,32.2 	"/>
	<polygon class="st7" points="149.9,62.4 146.8,60.2 145.3,61.6 	"/>
	<polyline class="st8" points="158.7,61.6 160.3,59.2 155.7,58.3 	"/>
	<polygon class="st9" points="156.5,54.9 153.4,52.7 151.9,54.1 	"/>
	<polygon class="st7" points="149.9,62.4 146.8,60.2 145.3,61.6 	"/>
	<polyline class="st8" points="158.7,61.6 160.3,59.2 155.7,58.3 	"/>
	<polygon class="st9" points="156.5,54.9 153.4,52.7 151.9,54.1 	"/>
	<polygon class="st7" points="149.9,62.4 146.8,60.2 145.3,61.6 	"/>
	<polyline class="st8" points="158.7,61.6 160.3,59.2 155.7,58.3 	"/>
	<polygon class="st9" points="156.5,54.9 153.4,52.7 151.9,54.1 	"/>
	<polygon class="st7" points="139.5,48.7 142.2,44.9 140.9,43.9 	"/>
	<polyline class="st8" points="139.5,57.2 141.7,58.1 143.1,53.2 	"/>
	<polygon class="st9" points="146.6,52.9 149.2,49.1 148,48 	"/>
	<polygon class="st7" points="139.5,48.7 142.2,44.9 140.9,43.9 	"/>
	<polyline class="st8" points="139.5,57.2 141.7,58.1 143.1,53.2 	"/>
	<polygon class="st9" points="146.6,52.9 149.2,49.1 148,48 	"/>
	<polygon class="st7" points="139.5,48.7 142.2,44.9 140.9,43.9 	"/>
	<polyline class="st8" points="154.3,29.9 156,27.5 151.4,26.7 	"/>
	<polygon class="st9" points="146.6,52.9 149.2,49.1 148,48 	"/>
	<polygon class="st7" points="141.6,25.8 138.6,23.4 137.4,24.6 	"/>
	<polyline class="st8" points="146.7,28.3 148.3,25.9 143.8,25 	"/>
	<polygon class="st9" points="150.9,34.5 150.1,30.8 148.4,30.9 	"/>
	<polyline class="st8" points="131.3,43.4 130,46 134.7,46.2 	"/>
	<polygon class="st9" points="147.4,43.6 150.8,45.4 152.1,43.8 	"/>
	<polygon class="st7" points="157.1,33.5 160.5,35.3 161.8,33.7 	"/>
	<polygon class="st7" points="150.1,39.6 153.5,41.3 154.8,39.7 	"/>
	<polyline class="st8" points="132.4,24.9 131.1,27.5 135.8,27.7 	"/>
	<polygon class="st9" points="171.8,24.6 169.7,28.7 171.2,29.6 	"/>
	<polygon class="st9" points="136.4,47.9 134.3,52 135.7,52.9 	"/>
	<polygon class="st9" points="167.5,53.5 165.4,57.6 166.8,58.5 	"/>
	<polyline class="st8" points="132.4,30.8 131.1,33.4 135.8,33.6 	"/>
</g>
<g>
	<path class="st0" d="M78.7,15.3c0,0,0.6-0.2,1.6-0.5c0.4-0.1,0.8-0.2,1.2-0.4c1.6-0.4,3.7-1,6-1.5c3.4-0.7,7.2-1.3,10.5-1.2
		c2.6,0,5.1,0.5,6.5,1.6c6,4.7,7.9,3.4,10.7,8c2.6,4.7,3.4,6.1,3.4,6.1s4,2.1,5.3,4.7c1.3,2.7,0.7,8-2,12.1
		c-2.6,4-7.9,12.1-7.3,14.8s-2.6,5.3-5.3,4.7c-2.6-0.7-12,5.3-17.3,3.4S72,57.1,69.3,49.7C66.7,42.3,66,39.6,68,35.6s2-8.7,2-8.7
		s-0.5-9.9,5.3-11.3c0.6-0.1,1.3-0.2,2-0.1l7.9-2.1"/>
	<polygon class="st7" points="114.3,38.4 117.3,40.8 118.9,39.5 	"/>
	<polyline class="st8" points="105.5,38.8 103.8,41.1 108.3,42.2 	"/>
	<polygon class="st9" points="107.4,45.5 110.4,47.9 112,46.6 	"/>
	<polygon class="st7" points="101.1,15.8 104.1,18.2 105.7,16.9 	"/>
	<polyline class="st8" points="92.4,16.2 90.6,18.5 95.1,19.6 	"/>
	<polygon class="st9" points="94.2,22.9 97.2,25.3 98.8,24 	"/>
	<polygon class="st7" points="101.1,15.8 104.1,18.2 105.7,16.9 	"/>
	<polyline class="st8" points="92.4,16.2 90.6,18.5 95.1,19.6 	"/>
	<polygon class="st9" points="94.2,22.9 97.2,25.3 98.8,24 	"/>
	<polygon class="st7" points="101.1,15.8 104.1,18.2 105.7,16.9 	"/>
	<polyline class="st8" points="92.4,16.2 90.6,18.5 95.1,19.6 	"/>
	<polygon class="st9" points="94.2,22.9 97.2,25.3 98.8,24 	"/>
	<polygon class="st7" points="110.8,30 108,33.6 109.2,34.8 	"/>
	<polyline class="st8" points="111.3,21.5 109.1,20.5 107.5,25.3 	"/>
	<polygon class="st9" points="104,25.5 101.1,29.1 102.4,30.3 	"/>
	<polygon class="st7" points="110.8,30 108,33.6 109.2,34.8 	"/>
	<polyline class="st8" points="111.3,21.5 109.1,20.5 107.5,25.3 	"/>
	<polygon class="st9" points="104,25.5 101.1,29.1 102.4,30.3 	"/>
	<polygon class="st7" points="110.8,30 108,33.6 109.2,34.8 	"/>
	<polyline class="st8" points="95.2,48.1 93.4,50.3 97.9,51.4 	"/>
	<polygon class="st9" points="104,25.5 101.1,29.1 102.4,30.3 	"/>
	<polygon class="st7" points="107.6,52.8 110.5,55.3 111.8,54.2 	"/>
	<polyline class="st8" points="102.7,50.1 100.9,52.3 105.4,53.4 	"/>
	<polygon class="st9" points="98.8,43.7 99.4,47.4 101.1,47.4 	"/>
	<polygon class="st7" points="76.2,37.6 73.6,34.8 71.9,35.9 	"/>
	<polyline class="st8" points="84.9,38.5 87,36.5 82.7,34.8 	"/>
	<polygon class="st9" points="84.1,31.6 81.5,28.8 79.8,29.8 	"/>
	<polygon class="st7" points="85.8,61.9 83.3,59.1 81.5,60.2 	"/>
	<polyline class="st8" points="94.6,62.8 96.7,60.8 92.4,59.1 	"/>
	<polygon class="st9" points="93.8,55.9 91.2,53.1 89.4,54.1 	"/>
	<polygon class="st7" points="85.8,61.9 83.3,59.1 81.5,60.2 	"/>
	<polyline class="st8" points="94.6,62.8 96.7,60.8 92.4,59.1 	"/>
	<polygon class="st9" points="93.8,55.9 91.2,53.1 89.4,54.1 	"/>
	<polygon class="st7" points="85.8,61.9 83.3,59.1 81.5,60.2 	"/>
	<polyline class="st8" points="94.6,62.8 96.7,60.8 92.4,59.1 	"/>
	<polygon class="st9" points="93.8,55.9 91.2,53.1 89.4,54.1 	"/>
	<polygon class="st7" points="78.4,46.4 81.8,43.3 80.7,42 	"/>
	<polyline class="st8" points="76.6,54.7 78.7,56.1 81,51.6 	"/>
	<polygon class="st9" points="84.5,51.9 87.8,48.7 86.8,47.4 	"/>
	<polygon class="st7" points="78.4,46.4 81.8,43.3 80.7,42 	"/>
	<polyline class="st8" points="76.6,54.7 78.7,56.1 81,51.6 	"/>
	<polygon class="st9" points="84.5,51.9 87.8,48.7 86.8,47.4 	"/>
	<polygon class="st7" points="78.4,46.4 81.8,43.3 80.7,42 	"/>
	<polyline class="st8" points="96.6,30.9 98.7,28.9 94.4,27.2 	"/>
	<polygon class="st9" points="84.5,51.9 87.8,48.7 86.8,47.4 	"/>
	<polygon class="st7" points="85,24.4 82.5,21.5 81.1,22.4 	"/>
	<polyline class="st8" points="89.5,27.8 91.6,25.8 87.2,24.1 	"/>
	<polygon class="st9" points="92.4,34.7 92.3,30.9 90.6,30.7 	"/>
	<polyline class="st8" points="71.4,39.6 69.6,41.9 74.1,43 	"/>
	<polygon class="st9" points="87.1,43 90.1,45.4 91.7,44.1 	"/>
	<polygon class="st7" points="98.6,35 101.6,37.4 103.2,36.1 	"/>
	<polygon class="st7" points="90.6,39.6 93.5,42 95.1,40.7 	"/>
	<polyline class="st8" points="76.2,21.7 74.4,24 78.9,25.1 	"/>
	<polygon class="st9" points="114.8,29.2 112,32.8 113.2,34 	"/>
	<polygon class="st9" points="75.4,45 72.6,48.6 73.8,49.8 	"/>
	<polygon class="st9" points="104.8,56.7 102,60.3 103.2,61.5 	"/>
	<polyline class="st8" points="75,27.5 73.2,29.8 77.7,30.9 	"/>
</g>
</svg>
