<?xml version="1.0" encoding="utf-8"?>
<!-- Generator: Adobe Illustrator 20.1.0, SVG Export Plug-In . SVG Version: 6.00 Build 0)  -->
<svg version="1.1" id="Layer_1" xmlns="http://www.w3.org/2000/svg" xmlns:xlink="http://www.w3.org/1999/xlink" x="0px" y="0px"
	 viewBox="0 0 378 80.9" style="enable-background:new 0 0 378 80.9;" xml:space="preserve">
<style type="text/css">
	.st0{enable-background:new    ;}
	.st1{fill:#42210B;stroke:#000000;stroke-width:6;stroke-miterlimit:10;}
	.st2{fill:none;}
	.st3{fill:#42210B;stroke:#050201;stroke-width:6;stroke-miterlimit:10;}
</style>
<g class="st0">
	<path class="st1" d="M74.4,43c-0.3,2-1.7,3.3-4.5,3.8c-0.5,0.1-1.1,0-1.8-0.3c-0.7-0.2-1.2-0.3-1.7-0.3s-1.1,0.1-1.7,0.2
		c-3.3,7.5-5.9,12.5-7.8,15c-3.4,4.8-7.8,7.8-13.3,9.3c-1.4,0.4-2.9,0.6-4.5,0.6c-1.5,0-5.3-0.7-11.4-2c-2.3-0.4-5.9-1.1-10.8-2.2
		c-4.9-1.4-8.8-4.6-11.5-9.7C2.9,52.8,1.7,47.3,1.7,41c0-8.2,2-15.6,5.9-22c4.4-7,10-11,17-11.8c0.6,0,1.3-0.1,2-0.1
		c4.3,0,9.4,0.8,15.6,2.4c6.5,1.7,11,3.6,13.3,5.6c1.9,1.6,3.1,3.8,3.7,6.3c0.8,2.9,1.2,4.5,1.4,4.7c0.3,0.9,0.6,1.9,1,3.1
		c0.1,0.7-0.3,1.4-1.3,2.3c-0.9,0.9-1.8,1.4-2.7,1.6c-1.1,0.3-4.4-0.1-10-1.1c-5.5-1-8.8-1.7-10-2.3c-1.5-0.6-2.2-1.8-1.9-3.5
		c0-0.2,0.2-0.6,0.6-0.9c0.4-0.4,0.6-0.7,0.6-1c0-3.5-0.7-5.3-2-5.3c-2.9,0-5.4,2.8-7.7,8.6c-2,5.4-3.1,11.3-3.1,17.7
		c0,9.5,2.3,15,6.8,16.4c1.4,0.4,3.2-1,5.5-4.1c2.3-3.2,3.7-6.1,4.1-8.9c-1.4-0.6-4-1.4-7.8-2.3c-3.1-0.8-4.7-1.4-5-1.9
		c-0.3-0.8,0.1-1.8,1.3-3.2c1.2-1.4,2.4-2.3,3.8-2.7c1.3-0.4,3.2-0.6,5.5-0.7c3.2,0,5.2,0,5.9-0.1c1.4-0.1,3.8-0.6,7-1.3
		c2.6-0.6,4.6-0.9,6-0.9c0.5,0,1,0,1.4,0.1c2.1,0.3,5.3,1.4,9.4,3.4C72.4,40.9,74.5,42.3,74.4,43z"/>
</g>
<g class="st0">
	<path class="st1" d="M274.9,47.9c-1.2,0.9-3.2,1.4-6,1.4c-2.4,0-4.8,0.1-7.1,0.1c-1.1,5.2-3.2,10-6.3,14.3c-3.3,4.4-6.7,7.1-10.4,8
		c-0.6,0.2-1.3,0.2-2.1,0.2c-3.4,0-7.3-1.1-11.7-3.4c-4.8-2.5-8.7-5.7-11.8-9.6c-3.5-4.6-5.3-9.6-5.3-14.9
		c0.1-8.8,2.2-16.6,6.3-23.3c4.9-8,11.5-12.1,19.9-12.1c6.3,0,11.4,2.3,15.3,6.9c3,3.5,5.1,7.9,6.3,13.4c1.4,1,2.1,2.1,2.1,3.3
		c0,1.3-0.7,2.3-2.1,3.1s-3.1,1.2-5.1,1.2c-2.3,0-4.8-0.3-7.4-1c-2.6-0.7-4.4-1.4-5.2-2.1c-0.5-0.5-0.8-0.9-0.8-1.4
		c0,0.3,0.3-0.7,1-2.9c-1.2-5.8-2.6-8.7-4.1-8.7c-1.4,0-3.1,2.8-5.3,8.3c-2.3,5.8-3.5,10.9-3.5,15.4c0,3.2,0.9,6.7,2.6,10.7
		c1.8,4,3.3,6,4.6,6c1.2,0,2.6-1.1,4.1-3.2c1.5-2.2,2.6-4.3,3.1-6.6c-2.1-0.6-4.1-1.5-6.2-2.9c-2.3-1.5-3.5-2.9-3.5-4.1
		c0-0.8,0.6-1.5,1.8-2.1s3.2-0.9,6-0.9c7.6-0.1,11.8-0.2,12.6-0.2c1.3-0.4,2.6-0.7,4.1-1.1c1.4-0.4,2.7-0.6,3.8-0.6
		c2.7,0,5.3,0.7,7.8,2.1c2.5,1.4,3.8,2.9,3.8,4.4C276.3,46.4,275.8,47.2,274.9,47.9z"/>
</g>
<rect x="251.4" y="9.7" class="st2" width="97.8" height="63.5"/>
<g class="st0">
	<path class="st1" d="M321.6,59.6c0.5,0.6,0.7,1.3,0.7,2c0,1.3-0.6,2.5-1.8,3.6c-1.2,1.2-2.7,1.9-4.3,2.3c-1.6,0.4-3.9,0.6-7,0.6
		c-3,0-5.2,0.1-6.5,0.4s-2.9,1-4.6,2.3c-1.5,1.1-4.1,1.8-7.9,2.1c-2.3,0.2-4.6-0.3-7-1.5s-4-2.7-4.9-4.4c-0.2-0.4-0.2-0.7-0.2-1
		c0-0.7,0.6-1.4,1.7-2.2s1.7-1.5,1.6-2.1l-5-45.6c0-0.2-0.4-0.7-1.2-1.4c-0.8-0.7-1.2-1.3-1.2-1.8c0-0.7,0.6-1.4,1.8-2
		c1.7-1,4-1.4,7.1-1.4c2.6,0,5.1,0.4,7.6,1.1c2.4,0.7,3.9,1.5,4.6,2.5c0.4,0.6,0.6,1,0.6,1.4c0,0.5-0.4,0.9-1.1,1.4
		c-0.7,0.5-1,0.9-1,1.3l4.3,41.6L305,57c1.5-0.5,3-0.9,4.6-1.3c1.5-0.4,2.8-0.6,3.9-0.6C316.2,54.7,319,56.3,321.6,59.6z"/>
</g>
<rect x="308.5" y="7.8" class="st2" width="97.8" height="65.4"/>
<g class="st0">
	<path class="st1" d="M366.9,18.3c-1.8,1-4,1.4-6.8,1.4c-1.2,0-2.5-0.1-4-0.2c-2.2,0.5-4.2,0.9-6,1.4c-4.3,1.1-7.2,2-8.6,2.7
		c-0.5,5.2-0.5,11.2,0,17.9c0.5-0.2,1.6-0.4,3.5-0.6c0.9-1.1,2.5-1.6,4.7-1.6s4.8,0.7,7.8,2.1c3,1.4,4.5,2.8,4.5,4.1
		c0,0.4-0.1,0.7-0.3,1.1c-0.9,1.5-2.4,2.5-4.3,2.9c-1.2,0.3-2.9,0.3-5.1,0.2s-3.7-0.1-4.3,0.1c-1.8,0.6-3.9,1.2-6.5,2
		c0,4.5,0.2,7.4,0.7,8.7c3.2-0.5,5.9-1.1,8.1-1.8c0.4-0.3,0.8-0.7,1.2-1c0.8-0.6,2.2-0.8,4.2-0.7c2.2,0.1,4.4,0.9,6.7,2.4
		c2.3,1.5,3.5,3,3.5,4.6c0,1.4-0.9,2.4-2.7,3c-1.8,0.7-4.7,0.9-8.9,0.7l-10.9,3.5c-0.5,0.2-1.5,0.7-3,1.5c-1.2,0.7-2.2,1-3.1,1
		c-0.3,0-0.7,0-1-0.1c-4.1-0.8-7.8-2.9-11.1-6.3c-0.2-0.2-0.3-0.6-0.3-0.9c0-0.2,0.4-1.2,1.3-3c-0.8-14.6-1-30.2-0.5-46.7
		c-0.5-0.5-0.8-1-0.8-1.5c0-1.7,2.3-2.7,7.1-3.2c1-0.1,2.3,0.1,3.8,0.5c1,0.4,2,0.7,2.9,1l13.9-2.9c0.3,0,1.2-0.4,2.7-0.9
		c1-0.4,2.2-0.6,3.5-0.6c0.6,0,1.3,0.1,2.2,0.2c1.7,0.2,3.4,1.1,5,2.6c1.7,1.5,2.5,3,2.5,4.3C368.2,17.2,367.8,17.8,366.9,18.3z"/>
</g>
<rect x="140.4" y="8.7" class="st2" width="97.8" height="63.5"/>
<g>
	<path class="st3" d="M139.6,37.6c0.6,6.7-1.3,13.5-5.8,20.6c-4.4,7.1-9.1,11.1-14.1,12c-2,0.4-4,0.5-5.9,0.4c-2-0.1-4-0.3-5.9-0.4
		C90.7,69,81.3,58.1,79.5,37.6C79,32,80.5,26.1,84,19.7c3.3-5.9,6.6-9.6,10.1-11c0.8-0.3,1.8-0.5,2.8-0.5c0.8,0,1.9,0.1,3.5,0.4
		c1.6,0.3,2.8,0.4,3.6,0.4c1,0,2.8-0.1,5.4-0.4c2.6-0.3,4.6-0.4,5.8-0.4c1.2,0,2.1,0.1,2.9,0.3C131.1,11.7,138.3,21.4,139.6,37.6z
		 M122.7,37.6c-0.8-6.2-2-10.9-3.4-14c-2.3-5.3-5.8-7.9-10.4-7.9c-1.3,0-2.6,0.2-3.9,0.6c-1.4,0.4-3.2,3-5.4,7.7
		c-2.3,5.2-3.5,9.7-3.5,13.6c0,5.1,1.5,10.5,4.5,16.1c3,5.6,5.9,8.5,8.6,8.5c2.6,0,5.5-2.5,8.6-7.6c3.3-5.3,5-10.3,5-15
		C122.8,38.9,122.8,38.3,122.7,37.6z"/>
</g>
<g>
	<path class="st3" d="M206.6,37.4c0.6,6.7-1.3,13.5-5.7,20.6c-4.4,7.1-9,11.1-13.9,12c-2,0.4-3.9,0.5-5.8,0.4
		c-2-0.1-3.9-0.3-5.8-0.4c-16.9-1.2-26.3-12.1-28-32.6c-0.5-5.6,1-11.5,4.4-17.9c3.2-5.9,6.5-9.6,10-11c0.8-0.3,1.7-0.5,2.7-0.5
		c0.7,0,1.9,0.1,3.5,0.4c1.6,0.3,2.8,0.4,3.6,0.4c1,0,2.8-0.1,5.4-0.4c2.6-0.3,4.5-0.4,5.7-0.4c1.2,0,2.1,0.1,2.8,0.3
		C198.2,11.4,205.2,21.1,206.6,37.4z M189.9,37.4c-0.8-6.2-1.9-10.9-3.3-14c-2.3-5.3-5.7-7.9-10.2-7.9c-1.2,0-2.5,0.2-3.9,0.6
		c-1.4,0.4-3.1,3-5.4,7.7c-2.3,5.2-3.5,9.7-3.5,13.6c0,5.1,1.5,10.5,4.4,16.1c3,5.6,5.8,8.5,8.5,8.5c2.5,0,5.4-2.5,8.5-7.6
		c3.3-5.3,4.9-10.3,4.9-15C190,38.7,190,38,189.9,37.4z"/>
</g>
</svg>
